<?xml version="1.0" standalone="no"?>
<!DOCTYPE svg PUBLIC "-//W3C//DTD SVG 20010904//EN"
 "http://www.w3.org/TR/2001/REC-SVG-20010904/DTD/svg10.dtd">
<svg version="1.0" xmlns="http://www.w3.org/2000/svg"
 width="254.000000pt" height="254.000000pt" viewBox="0 0 254.000000 254.000000"
 preserveAspectRatio="xMidYMid meet">
<metadata>
Created by potrace 1.14, written by Peter Selinger 2001-2017
</metadata>
<g transform="translate(0.000000,254.000000) scale(0.100000,-0.100000)"
fill="#000000" stroke="none">
<path d="M1246 2524 c-23 -23 -23 -245 0 -268 21 -21 47 -20 67 2 14 15 17 41
17 135 0 122 -8 147 -50 147 -10 0 -26 -7 -34 -16z"/>
<path d="M393 2178 c-29 -38 -24 -49 64 -139 94 -97 120 -108 149 -64 15 23
15 27 -2 53 -10 15 -49 57 -87 95 -68 67 -103 82 -124 55z"/>
<path d="M2120 2183 c-31 -11 -180 -167 -180 -190 0 -22 33 -53 56 -53 7 0 51
39 99 87 67 68 85 93 83 112 -3 27 -35 51 -58 44z"/>
<path d="M1017 2076 c-49 -18 -73 -40 -94 -87 -14 -34 -19 -37 -47 -34 -68 9
-136 -38 -136 -94 0 -21 -7 -29 -33 -39 -55 -20 -81 -56 -82 -112 0 -41 -4
-52 -28 -70 -33 -26 -53 -63 -61 -113 -3 -21 -13 -48 -21 -61 -17 -26 -22 -79
-11 -113 4 -13 3 -23 -2 -23 -20 0 -40 -61 -31 -95 7 -24 5 -40 -6 -61 -23
-45 -19 -105 10 -148 14 -20 25 -44 25 -52 0 -30 32 -84 59 -100 20 -12 27
-24 29 -56 3 -47 21 -84 54 -115 27 -25 88 -53 117 -53 11 0 30 -13 42 -29 12
-16 40 -43 63 -59 95 -68 216 -56 312 31 l39 35 -1 699 c0 385 -4 706 -9 712
-22 37 -130 57 -188 37z m23 -96 l0 -50 -42 1 c-35 1 -38 2 -18 8 20 5 26 14
28 41 3 29 15 49 30 50 1 0 2 -22 2 -50z m77 15 c0 -17 2 -35 2 -42 1 -6 11
-14 24 -16 12 -3 4 -4 -18 -4 l-40 2 -1 48 c-1 39 2 47 15 45 10 -2 17 -15 18
-33z m-249 -114 c9 -5 12 -26 10 -67 l-3 -59 -52 0 c-30 0 -52 4 -50 10 1 6 7
8 12 6 6 -2 21 -4 35 -5 24 -1 25 2 25 54 0 47 -3 55 -17 52 -10 -2 -18 2 -18
8 0 12 39 13 58 1z m132 -61 c0 -54 -3 -70 -14 -70 -11 0 -16 15 -18 53 -2 40
-7 51 -18 49 -8 -1 -4 7 10 18 14 11 28 20 33 20 4 0 7 -31 7 -70z m143 60
c-25 -10 -25 -9 -25 -60 0 -55 1 -60 17 -54 8 4 15 1 15 -5 0 -12 -59 -16 -61
-3 -7 38 -6 118 1 122 5 3 24 6 42 7 29 2 30 1 11 -7z m-428 -235 c0 -58 -1
-59 -31 -65 -16 -4 -39 -3 -50 1 -19 8 -16 10 21 12 11 1 22 7 24 12 2 6 11
15 19 21 13 9 12 14 -2 42 -20 39 -20 44 2 40 14 -3 17 -14 17 -63z m125 1 c0
-48 -4 -65 -15 -70 -16 -6 -17 -2 -17 62 0 32 -4 42 -17 42 -11 1 -8 5 9 15
14 8 28 14 33 15 4 0 7 -29 7 -64z m200 0 c0 -72 -4 -76 -75 -66 l-40 5 -1 55
c-1 30 0 58 3 63 2 4 29 7 59 7 l54 0 0 -64z m120 -6 c0 -58 -3 -68 -15 -64
-11 4 -15 21 -15 55 0 40 -3 49 -17 49 -14 1 -12 4 7 15 14 8 28 14 33 15 4 0
7 -31 7 -70z m-442 -168 c3 -58 1 -62 -21 -67 -13 -4 -39 -5 -58 -3 l-34 3 -3
59 c-4 69 3 77 68 73 l45 -3 3 -62z m122 -3 c0 -62 -2 -70 -17 -67 -14 3 -18
13 -17 51 1 34 -2 47 -12 47 -8 0 -14 5 -14 11 0 5 4 8 9 5 5 -3 14 1 21 9 23
28 30 15 30 -56z m195 0 l0 -64 -55 0 -55 0 -3 59 c-4 69 3 77 68 73 l45 -3 0
-65z m115 59 c0 -4 -8 -8 -17 -8 -18 0 -18 -4 -14 -99 1 -8 8 -11 21 -8 11 3
20 1 20 -4 0 -11 -50 -12 -66 -1 -12 8 -13 101 -1 119 9 14 57 14 57 1z m-432
-235 c2 -39 -1 -63 -8 -64 -5 0 -31 -1 -57 -2 l-48 -1 -3 53 c-5 78 -1 83 60
79 l53 -3 3 -62z m160 0 c3 -70 10 -64 -75 -66 l-38 0 -3 53 c-5 77 -1 82 60
78 l53 -3 3 -62z m120 2 c-4 -79 -22 -91 -26 -17 -2 41 -7 52 -20 52 -12 1
-10 5 8 15 14 8 29 14 33 15 4 0 7 -29 5 -65z m145 58 c-22 -4 -25 -11 -25
-53 0 -54 2 -60 25 -60 15 0 18 -3 9 -8 -7 -5 -25 -7 -40 -4 -27 4 -28 6 -29
60 0 32 1 60 4 65 2 4 21 6 41 6 23 -1 29 -3 15 -6z m-427 -189 c3 -11 4 -40
2 -65 l-3 -44 -55 0 -55 0 -3 62 c-3 68 -1 71 71 69 30 0 39 -5 43 -22z m124
-44 c0 -61 -2 -70 -18 -70 -15 0 -18 8 -16 50 1 40 -2 50 -15 50 -10 0 -5 8
14 20 17 11 31 20 33 20 1 0 2 -31 2 -70z m188 61 c9 -1 12 -18 10 -63 l-3
-63 -49 -3 c-58 -4 -66 4 -66 69 0 64 7 68 108 60z m132 -67 c0 -50 -3 -64
-15 -64 -11 0 -15 12 -15 50 0 41 -3 50 -17 51 -14 0 -13 3 5 11 12 6 22 15
22 20 0 5 5 6 10 3 6 -3 10 -35 10 -71z m-605 0 c0 -48 -3 -59 -17 -62 -15 -3
-17 4 -14 55 5 77 4 75 19 70 8 -2 12 -24 12 -63z m125 -168 c0 -37 -5 -68
-11 -72 -16 -10 -25 10 -24 53 1 24 -4 43 -14 50 -14 11 -14 12 2 13 9 0 17 5
17 10 0 6 7 10 15 10 12 0 15 -14 15 -64z m198 -2 c3 -73 -4 -77 -110 -65 -10
1 -10 115 -1 125 4 4 30 6 58 4 l50 -3 3 -61z m160 0 c3 -57 1 -62 -20 -67
-12 -4 -27 -2 -32 3 -7 7 -4 10 6 10 12 0 15 11 14 53 -1 49 -3 52 -26 52 -23
0 -25 -4 -26 -45 0 -25 4 -51 9 -58 14 -18 2 -25 -22 -12 -17 9 -21 20 -21 64
0 29 3 56 7 60 4 4 30 6 58 4 l50 -3 3 -61z m122 -4 c0 -58 -3 -68 -15 -64
-11 4 -15 21 -15 55 0 27 -3 48 -7 48 -24 -4 -25 3 -3 15 14 8 28 14 33 15 4
1 7 -30 7 -69z m-447 -109 c11 -1 9 -111 -3 -111 -15 0 -27 32 -25 68 1 30 -8
38 -38 33 -5 -1 -6 3 -3 8 4 5 19 8 34 6 15 -2 30 -4 35 -4z m160 0 c4 -1 7
-29 5 -63 l-3 -63 -55 0 -55 0 -3 62 c-2 52 0 62 15 65 15 3 69 3 96 -1z m127
-61 c0 -60 -3 -70 -17 -70 -15 0 -17 8 -15 50 3 43 1 50 -15 50 -14 0 -11 5
12 20 17 11 31 20 33 20 1 0 2 -31 2 -70z m150 60 c8 -1 4 -5 -9 -9 -24 -6
-26 -16 -22 -95 1 -8 11 -17 24 -19 17 -3 15 -5 -8 -5 -44 -2 -52 8 -51 63 1
58 9 75 34 70 9 -2 24 -4 32 -5z m-112 -218 c3 -37 1 -43 -14 -40 -13 2 -18
13 -18 38 -1 28 -5 36 -23 38 -16 2 -23 -2 -24 -15 -3 -43 -5 -48 -19 -48 -19
0 -26 55 -8 67 7 4 33 7 58 6 l45 -3 3 -43z m122 43 c0 -15 -26 -31 -43 -27
-16 4 -16 6 5 17 26 15 38 18 38 10z"/>
<path d="M958 1688 c-2 -7 -3 -31 -3 -53 0 -36 3 -40 26 -43 26 -3 27 -2 25
50 -1 46 -4 53 -22 56 -12 2 -23 -3 -26 -10z"/>
<path d="M639 1525 c-1 0 -3 -24 -4 -53 -3 -56 11 -76 38 -53 11 8 16 69 8
101 -1 4 -33 8 -42 5z"/>
<path d="M959 1524 c-1 -5 -2 -30 -3 -56 -2 -40 1 -49 17 -54 11 -4 23 0 28 7
10 17 9 99 -2 99 -4 0 -14 3 -23 6 -9 3 -17 2 -17 -2z"/>
<path d="M638 1343 c-3 -4 -4 -28 -4 -53 1 -41 4 -45 26 -48 25 -3 26 -1 25
50 -1 46 -4 53 -22 56 -12 2 -23 0 -25 -5z"/>
<path d="M799 1348 c-1 -2 -2 -27 -3 -56 -1 -51 0 -53 24 -50 23 3 25 7 25 53
0 44 -3 50 -22 53 -13 2 -24 2 -24 0z"/>
<path d="M641 1171 c-7 -4 -10 -28 -9 -57 3 -42 6 -49 26 -52 12 -2 22 0 23 5
8 70 4 102 -11 106 -10 3 -23 1 -29 -2z"/>
<path d="M959 1161 c-7 -82 -4 -96 21 -96 23 0 25 4 27 51 1 48 0 52 -23 57
-17 3 -24 0 -25 -12z"/>
<path d="M799 996 c-6 -26 -4 -93 3 -102 5 -7 17 -10 26 -7 14 3 18 15 17 56
0 46 -3 52 -22 55 -13 2 -24 1 -24 -2z"/>
<path d="M802 816 c-4 -6 -8 -31 -8 -56 1 -41 3 -45 26 -45 23 0 25 4 26 52 1
42 -2 52 -17 56 -10 3 -22 0 -27 -7z"/>
<path d="M1403 2070 c-21 -9 -43 -23 -49 -31 -7 -10 -10 -232 -9 -711 l0 -697
30 -31 c45 -47 126 -82 189 -82 66 0 138 36 185 93 20 23 42 39 54 39 36 1
101 35 130 69 23 28 32 52 41 113 1 9 18 33 39 53 23 22 39 49 43 73 4 20 17
50 28 65 28 38 30 135 3 165 -12 13 -15 22 -8 27 18 10 13 80 -7 101 -14 15
-17 30 -14 71 3 39 0 60 -13 79 -9 14 -19 42 -21 61 -6 46 -28 86 -61 113 -24
18 -28 29 -28 70 0 57 -27 92 -81 110 -27 9 -34 17 -34 39 0 57 -62 103 -132
96 -33 -3 -37 0 -54 37 -36 80 -144 117 -231 78z m77 -85 c0 -41 2 -45 25 -45
26 0 28 5 25 53 -2 26 0 28 19 17 21 -11 26 -34 15 -64 -5 -12 -20 -16 -59
-16 l-53 0 -4 39 c-4 48 -1 61 18 61 10 0 14 -13 14 -45z m50 -159 c0 -64 -14
-92 -31 -65 -5 8 -7 26 -5 42 3 16 -2 34 -11 43 -8 8 -14 16 -12 17 2 1 13 7
24 14 33 19 35 16 35 -51z m198 -3 c3 -59 2 -63 -21 -68 -13 -4 -39 -5 -58 -3
-34 3 -34 4 -37 57 -5 78 -1 83 60 79 l53 -3 3 -62z m-321 25 c-3 -8 -6 -5 -6
6 -1 11 2 17 5 13 3 -3 4 -12 1 -19z m0 -70 c-3 -8 -6 -5 -6 6 -1 11 2 17 5
13 3 -3 4 -12 1 -19z m443 -19 c0 -14 -27 -10 -33 5 -4 10 0 12 14 9 10 -3 19
-9 19 -14z m-285 -72 c7 -25 2 -88 -8 -104 -5 -8 -94 -10 -102 -1 -5 5 -7 40
-6 86 l1 42 55 0 c48 0 55 -3 60 -23z m125 -43 c0 -57 -2 -65 -17 -62 -14 3
-18 13 -18 47 0 28 -5 46 -13 49 -10 3 -8 8 5 18 35 27 43 17 43 -52z m200 1
c0 -70 2 -67 -60 -67 -62 0 -60 -2 -60 60 0 32 3 62 7 65 3 4 30 7 60 7 l53 0
0 -65z m-328 -114 c3 -1 5 -29 5 -63 l-2 -63 -49 -3 c-27 -2 -54 2 -59 7 -15
15 -11 112 5 123 7 4 31 6 53 4 22 -3 43 -5 47 -5z m128 -62 c0 -62 -2 -70
-17 -67 -14 3 -18 13 -18 47 0 27 -5 46 -13 49 -8 2 -5 10 10 23 13 10 26 18
31 19 4 0 7 -32 7 -71z m190 63 c7 -1 10 -26 8 -64 l-3 -63 -55 0 -55 0 -3 59
c-2 35 1 62 8 66 9 6 68 7 100 2z m87 -56 c-2 -56 0 -61 23 -67 20 -6 16 -7
-15 -6 -40 2 -40 2 -43 46 -4 57 4 88 22 88 12 0 15 -13 13 -61z m-402 -181
l0 -60 -40 -5 c-71 -10 -75 -6 -75 67 l0 64 58 -3 57 -3 0 -60z m163 -2 c3
-67 5 -65 -53 -65 -68 0 -65 -3 -65 60 0 32 3 62 7 66 4 4 30 6 58 4 l50 -3 3
-62z m122 2 c0 -55 -3 -65 -17 -65 -15 0 -18 8 -16 46 1 32 -2 47 -13 51 -12
4 -10 8 8 18 37 20 38 19 38 -50z m135 56 c-19 -8 -23 -35 -16 -101 1 -5 13
-10 27 -10 24 0 26 3 22 32 -5 28 -4 29 9 13 15 -21 16 -26 5 -42 -8 -13 -23
-16 -69 -14 l-33 1 0 58 c0 32 3 62 7 65 3 4 20 7 37 6 26 0 28 -2 11 -8z
m-423 -175 c10 -15 10 -98 -1 -114 -5 -9 -25 -12 -57 -10 l-49 3 -3 59 c-2 37
1 62 9 66 17 11 93 8 101 -4z m128 -62 c0 -57 -2 -65 -17 -62 -14 3 -18 13
-17 51 1 41 -2 47 -20 47 -18 0 -17 3 9 19 17 10 33 16 38 14 4 -2 7 -33 7
-69z m193 67 c4 -1 7 -29 5 -63 l-3 -63 -55 0 -55 0 -3 59 c-2 36 1 62 8 66 9
6 64 6 103 1z m138 -6 c25 -15 36 -47 30 -85 l-6 -35 -55 0 -55 0 -3 53 c-2
30 2 59 7 66 12 14 59 15 82 1z m-614 -57 c-3 -8 -6 -5 -6 6 -1 11 2 17 5 13
3 -3 4 -12 1 -19z m123 -171 c0 -68 -4 -79 -25 -71 -9 4 -12 20 -10 49 2 32
-1 45 -13 50 -13 5 -12 8 4 20 36 27 44 19 44 -48z m198 -1 c2 -37 -1 -62 -8
-66 -10 -6 -66 -6 -102 -1 -10 1 -10 115 -1 125 4 4 30 6 58 4 l50 -3 3 -59z
m157 -5 c0 -64 0 -65 -27 -66 -16 -1 -28 2 -28 7 0 4 6 8 14 8 10 0 14 14 12
53 -1 48 -3 52 -26 52 -23 0 -25 -4 -26 -52 0 -29 3 -53 8 -53 4 0 8 -4 8 -9
0 -5 -8 -8 -17 -6 -10 2 -21 4 -25 4 -10 1 -10 115 -1 125 4 4 30 6 58 4 l50
-3 0 -64z m112 15 c-11 -29 -12 -29 -15 -8 -2 13 -10 26 -18 29 -12 4 -10 8 8
17 30 16 39 2 25 -38z m-590 12 c-3 -8 -6 -5 -6 6 -1 11 2 17 5 13 3 -3 4 -12
1 -19z m0 -70 c-3 -8 -6 -5 -6 6 -1 11 2 17 5 13 3 -3 4 -12 1 -19z m150 -71
c6 -4 10 -31 9 -64 l-1 -58 -57 -3 -58 -3 0 65 c0 40 4 66 12 68 18 6 82 3 95
-5z m161 4 c9 -1 12 -18 10 -63 l-3 -63 -55 0 -55 0 -3 59 c-2 33 1 62 7 65 9
6 39 6 99 2z m132 -56 c0 -41 -4 -56 -17 -64 -16 -8 -18 -4 -16 36 1 31 -3 46
-13 50 -12 4 -12 8 3 19 34 25 43 17 43 -41z m-285 -160 c0 -30 -4 -41 -17
-43 -15 -3 -17 3 -15 35 2 34 0 38 -23 38 -15 0 -26 -6 -26 -15 -1 -8 -2 -20
-3 -27 -2 -26 -31 0 -31 29 l0 29 58 -3 57 -3 0 -40z m125 25 c0 -10 -10 -24
-21 -31 -15 -8 -19 -8 -15 0 4 6 -3 15 -16 20 l-23 10 23 0 c12 1 22 6 22 11
0 6 7 10 15 10 8 0 15 -9 15 -20z"/>
<path d="M1646 1871 c-2 -3 -3 -28 -2 -56 1 -33 5 -50 14 -49 6 1 18 2 25 3
10 1 13 17 13 54 -1 47 -4 52 -24 53 -12 1 -24 -1 -26 -5z"/>
<path d="M1485 1690 c-3 -5 -5 -30 -4 -55 2 -40 5 -45 26 -45 23 0 25 4 25 60
0 17 -1 35 -1 40 -1 13 -38 13 -46 0z"/>
<path d="M1808 1693 c-2 -4 -4 -28 -4 -53 1 -41 3 -45 26 -45 23 0 25 3 25 50
0 44 -3 50 -22 53 -11 2 -23 0 -25 -5z"/>
<path d="M1486 1523 c-8 -8 -8 -77 0 -97 7 -17 43 -22 45 -6 1 6 1 21 1 35 0
63 -2 71 -21 72 -10 1 -22 -1 -25 -4z"/>
<path d="M1811 1516 c-7 -9 -8 -56 -2 -99 1 -5 11 -7 24 -5 18 2 22 10 24 43
1 22 0 47 -3 56 -5 18 -30 21 -43 5z"/>
<path d="M1486 1342 c-2 -4 -4 -29 -4 -55 0 -43 2 -47 24 -47 24 0 26 4 26 65
0 14 0 30 -1 35 -1 12 -38 14 -45 2z"/>
<path d="M1647 1343 c-2 -4 -4 -28 -3 -53 1 -41 3 -45 26 -45 23 0 25 3 25 50
-1 43 -3 50 -22 53 -12 2 -23 0 -26 -5z"/>
<path d="M1498 1173 c-14 -3 -18 -15 -18 -53 0 -40 3 -50 21 -55 27 -9 32 -3
31 37 -1 84 1 80 -34 71z"/>
<path d="M1813 1171 c-10 -6 -10 -97 0 -107 3 -3 15 -3 26 1 17 5 20 14 20 55
-1 37 -6 49 -19 53 -10 2 -22 2 -27 -2z"/>
<path d="M1979 1170 c-9 -6 -14 -24 -13 -57 1 -44 3 -48 25 -48 22 0 24 5 27
51 3 54 -9 70 -39 54z"/>
<path d="M1649 998 c-1 -2 -3 -23 -4 -48 -3 -51 7 -70 34 -63 15 4 18 14 17
56 -2 45 -5 52 -24 55 -12 2 -23 2 -23 0z"/>
<path d="M1484 816 c-3 -7 -4 -33 -2 -57 3 -39 6 -44 27 -44 22 0 24 4 25 49
0 42 -3 50 -22 57 -16 6 -24 5 -28 -5z"/>
<path d="M1644 768 c1 -50 3 -53 26 -53 23 0 25 3 25 50 0 46 -2 50 -26 53
-25 3 -26 1 -25 -50z"/>
<path d="M36 1324 c-20 -20 -20 -48 0 -68 12 -13 39 -16 132 -16 64 0 122 4
129 8 21 13 26 58 8 76 -24 23 -246 24 -269 0z"/>
<path d="M2246 1314 c-20 -19 -20 -34 0 -62 14 -21 23 -22 134 -22 94 0 122 3
134 16 19 18 20 38 6 65 -10 17 -22 19 -135 19 -99 0 -127 -3 -139 -16z"/>
<path d="M455 545 c-47 -47 -85 -92 -85 -101 0 -31 20 -54 48 -54 21 0 47 19
110 83 84 84 97 112 66 138 -35 29 -53 20 -139 -66z"/>
<path d="M1945 596 c-9 -13 -12 -31 -9 -41 4 -9 43 -53 87 -96 95 -94 127
-102 151 -35 5 14 -14 39 -81 107 -93 96 -120 108 -148 65z"/>
<path d="M1009 424 c-9 -11 -10 -20 -2 -32 9 -15 39 -17 273 -17 234 0 264 2
273 17 8 12 7 21 -2 32 -12 14 -48 16 -271 16 -223 0 -259 -2 -271 -16z"/>
<path d="M1016 328 c-19 -11 -21 -43 -3 -55 6 -4 126 -8 266 -8 202 -1 256 2
267 13 17 17 18 38 2 49 -18 11 -512 12 -532 1z"/>
<path d="M1033 232 c-26 -4 -39 -37 -23 -57 10 -12 57 -15 270 -15 213 0 260
3 270 15 13 16 5 54 -13 56 -33 3 -485 4 -504 1z"/>
<path d="M1089 114 c-18 -22 0 -48 35 -52 15 -2 48 -16 73 -32 57 -36 114 -35
172 3 22 15 51 27 65 27 33 0 50 23 36 49 -10 20 -19 21 -189 21 -151 0 -181
-2 -192 -16z"/>
</g>
</svg>
